# xmcd
#
# Track frame offsets: 
#        150
#        16819
#        36368
#        57314
#        73156
#        86355
#        106882
#        130872
#        153837
#        166299
#        183084
#
# Disc length: 2727 seconds
#
# Revision: 3
# Processed by: cddbd v1.5.2PL0 Copyright (c) Steve Scherf et al.
# Submitted via: ExactAudioCopy v1.3
#
DISCID=830aa50b
DTITLE=Harry Belafonte - Belafonte Sings the Blues (CAPF 1972 SA)
DYEAR=1958
DGENRE=Blues
TTITLE0=A Fool For You (Ray Charles)
TTITLE1=Loosing Hand (Charles Calhoun)
TTITLE2=One For My Baby (Johnny Mercer - Harold Arlen)
TTITLE3=In the Evenin Mama (C. C. Carter)
TTITLE4=Hallelujah I Love Her So (Ray Charles)
TTITLE5=The Way That I Feel (Fred Brooks)
TTITLE6=Cotton Fields (C. C. Carter)
TTITLE7=God Bless the Child (Bessie Smith)
TTITLE8=Mary Ann (Ray Charles)
TTITLE9=Sinners Prayer (Lowell Fulson)
TTITLE10=Fare Thee Well (Fred Brooks)
EXTD=
EXTT0=
EXTT1=
EXTT2=
EXTT3=
EXTT4=
EXTT5=
EXTT6=
EXTT7=
EXTT8=
EXTT9=
EXTT10=
PLAYORDER=
